<?xml version="1.0" encoding="utf-8"?>
<!-- Generator: Adobe Illustrator 16.0.0, SVG Export Plug-In . SVG Version: 6.00 Build 0)  -->
<!DOCTYPE svg PUBLIC "-//W3C//DTD SVG 1.1//EN" "http://www.w3.org/Graphics/SVG/1.1/DTD/svg11.dtd">
<svg version="1.1" id="Layer_1" xmlns="http://www.w3.org/2000/svg" xmlns:xlink="http://www.w3.org/1999/xlink" x="0px" y="0px"
	 width="275.51px" height="275.509px" viewBox="0 0 275.51 275.509" enable-background="new 0 0 275.51 275.509"
	 xml:space="preserve">
<rect fill="#192352" width="275.51" height="275.509"/>
<path fill="#FFFFFF" d="M60.359,228.996c0,10.574-8.164,18.249-18.357,18.249c-10.395,0-18.359-7.762-18.359-17.868
	c0-10.585,8.157-18.26,18.359-18.26C52.395,211.117,60.359,218.89,60.359,228.996 M54.528,229.189
	c0-9.617-4.665-16.326-12.526-16.326c-8.551,0-12.534,8.058-12.534,16.326c0,9.605,4.661,16.309,12.534,16.309
	C50.547,245.498,54.528,237.447,54.528,229.189"/>
<path fill="#FFFFFF" d="M172.449,228.996c0,10.574-8.158,18.249-18.357,18.249c-10.395,0-18.359-7.762-18.359-17.868
	c0-10.585,8.16-18.26,18.359-18.26C164.484,211.117,172.449,218.89,172.449,228.996 M166.623,229.189
	c0-9.617-4.664-16.326-12.531-16.326c-8.545,0-12.528,8.058-12.528,16.326c0,9.605,4.663,16.309,12.528,16.309
	C162.637,245.498,166.623,237.447,166.623,229.189"/>
<path fill="#FFFFFF" d="M186.629,229.374H191c6.606,0,8.065-4.166,8.065-8.157c0-3.011-1.361-5.831-4.47-7.185
	c-1.65-0.683-3.207-0.683-5.342-0.683h-2.625V229.374z M194.693,235.006c-2.041-2.912-2.82-3.979-5.342-3.979h-2.723v11.852
	c0,0.97,0.391,1.447,1.462,1.648l3.979,0.874v1.269h-15.637v-1.269l3.597-0.874c1.062-0.287,1.453-0.679,1.453-1.648v-27.391
	c0-0.973-0.391-1.361-1.453-1.65l-3.597-0.877v-1.264h15.249c3.207,0,5.439,0.293,7.286,0.969c3.786,1.461,5.923,5.062,5.923,8.453
	c0,4.279-3.205,7.877-8.548,9.128v0.195c1.071,0.493,1.651,1.166,5.44,6.128l4.76,6.309c0.68,0.97,1.555,1.551,2.625,1.749
	l3.494,0.773v1.269h-8.352c-0.971,0-1.459-0.299-2.33-1.467L194.693,235.006z"/>
<path fill="#FFFFFF" d="M126.214,223.646h1.456v11.659h-1.456l-0.876-3.496c-0.291-1.267-1.068-1.749-2.232-1.749h-8.453v12.819
	c0,0.973,0.389,1.45,1.457,1.648l3.984,0.874v1.269h-15.637v-1.269l3.593-0.874c1.068-0.287,1.456-0.676,1.456-1.648v-27.393
	c0-0.974-0.388-1.359-1.456-1.646l-3.593-0.877v-1.269h26.418v8.754h-1.459l-1.648-5.253c-0.388-1.355-0.971-1.845-2.137-1.845
	h-10.979v15.052h8.453c1.164,0,1.845-0.478,2.232-1.747L126.214,223.646z"/>
<path fill="#FFFFFF" d="M215.479,246.67v-1.269l3.592-0.874c1.072-0.287,1.461-0.676,1.461-1.648v-27.391
	c0-0.976-0.389-1.361-1.461-1.647l-3.592-0.877v-1.267h16.418c4.465,0,7.672,0.583,10.293,1.749
	c6.607,3.014,9.619,9.517,9.619,15.928c0,6.226-2.334,12.046-8.258,15.153c-2.721,1.465-6.508,2.143-11.461,2.143H215.479z
	 M225.678,213.35v30.109c0,1.27,0.293,1.564,1.557,1.564h4.273c4.078,0,7.09-0.594,9.227-2.145c3.59-2.617,5.244-7.376,5.244-13.402
	c0-5.928-1.654-11.75-6.508-14.568c-2.037-1.171-4.662-1.559-8.744-1.559H225.678z"/>
<path fill="#FFFFFF" d="M74.054,245.401v1.269H61.721v-1.269l3.104-0.771c1.171-0.302,1.941-0.678,2.718-1.555l10.688-13.404
	l-10.688-14.184c-0.678-0.976-1.547-1.456-2.623-1.751l-2.915-0.773v-1.267h15.349v1.267l-3.3,0.675
	c-1.169,0.202-0.876,0.684-0.296,1.46l7.87,11.27h0.192l8.064-11.27c0.581-0.776,0.779-1.066-0.289-1.361l-3.111-0.773v-1.267
	h12.337v1.267l-3.108,0.773c-1.166,0.295-1.941,0.678-2.719,1.554l-10.103,12.732l11.265,14.855c0.684,0.973,1.557,1.45,2.625,1.752
	l2.916,0.771v1.269h-15.35v-1.269l3.303-0.673c1.167-0.201,0.972-0.58,0.389-1.372l-8.549-12.041h-0.191l-8.643,11.96
	c-0.586,0.775-0.781,1.054,0.287,1.355L74.054,245.401z"/>
<path fill="#FFFFFF" d="M37.262,195.239c-0.969,0.968-2.416,1.61-4.439,1.61c-1.76,0-3.395-0.556-4.502-1.659
	c-1.508-1.508-1.438-3.433-1.438-5.491v-9.726h1.982v10.447c0,1.322-0.037,2.61,0.982,3.633c0.711,0.708,1.798,1.091,3.051,1.091
	c1.229,0,2.21-0.423,2.822-1.036c1.14-1.139,1.069-2.376,1.069-5.37v-8.765h1.949v8.25
	C38.739,191.358,38.869,193.631,37.262,195.239"/>
<polygon fill="#FFFFFF" points="54.861,196.538 46.881,182.96 46.932,196.538 45.109,196.538 45.109,179.972 47.145,179.972 
	55.152,193.626 55.1,179.972 56.923,179.972 56.923,196.538 "/>
<rect x="63.832" y="179.974" fill="#FFFFFF" width="1.994" height="16.564"/>
<polygon fill="#FFFFFF" points="78.219,196.538 75.936,196.538 70.222,179.974 72.299,179.974 77.135,194.597 82.107,179.974 
	84.039,179.974 "/>
<polygon fill="#FFFFFF" points="88.549,196.538 88.549,179.974 97.553,179.974 97.553,181.626 90.498,181.626 90.498,187.094 
	97.121,187.094 97.121,188.703 90.498,188.703 90.498,194.835 97.75,194.835 97.75,196.538 "/>
<path fill="#FFFFFF" d="M110.342,182.467c-0.949-0.95-2.178-0.909-3.531-0.909h-1.834v6.189h0.66c1.67,0,3.471,0.086,4.609-1.053
	c0.548-0.546,0.854-1.318,0.854-2.156C111.101,183.605,110.734,182.859,110.342,182.467 M112.152,196.538l-1.9-4.296
	c-1.183-2.641-1.717-2.912-4.119-2.912h-1.156v7.208h-1.955v-16.564h3.574c2.211,0,3.881-0.016,5.183,1.286
	c0.827,0.832,1.291,1.931,1.291,3.313c0,1.152-0.333,2.11-1.028,2.848c-0.596,0.635-1.583,1.19-2.657,1.307
	c0.583,0.033,1.063,0.348,1.378,0.662c0.453,0.45,0.781,1.134,1.264,2.216l2.202,4.933H112.152z"/>
<rect x="133.579" y="179.974" fill="#FFFFFF" width="1.993" height="16.564"/>
<polygon fill="#FFFFFF" points="146.943,181.626 146.943,196.538 144.95,196.538 144.95,181.626 140.031,181.626 140.031,179.974 
	151.852,179.974 151.852,181.626 "/>
<polygon fill="#FFFFFF" points="161.387,189.992 161.387,196.538 159.418,196.538 159.418,189.992 154.162,179.974 156.438,179.974 
	160.521,187.741 164.486,179.972 166.646,179.974 "/>
<path fill="#FFFFFF" d="M185.227,181.352c-3.246,0-5.354,2.741-5.354,6.874c0,4.114,2.346,6.919,5.459,6.919
	c3.461,0,5.39-2.945,5.39-7.051C190.722,184.056,188.446,181.352,185.227,181.352 M185.234,196.853
	c-4.289,0-7.424-3.541-7.424-8.521c0-5.12,3.102-8.673,7.576-8.673c4.336,0,7.398,3.518,7.398,8.521
	C192.785,193.306,189.715,196.853,185.234,196.853"/>
<polygon fill="#FFFFFF" points="200.207,181.626 200.207,187.091 206.615,187.091 206.615,188.701 200.207,188.701 200.207,196.538 
	198.23,196.538 198.23,179.974 207.027,179.974 207.027,181.626 "/>
<path fill="#FFFFFF" d="M118.244,184.015c0-2.547,2.045-4.355,5.038-4.355c3.029,0,4.483,1.562,4.63,1.725l-0.971,1.178
	c-0.372-0.288-1.698-1.264-3.529-1.264c-2.112,0-3.283,1.106-3.283,2.604c0,0.727,0.298,1.25,0.777,1.676
	c0.567,0.512,1.396,0.89,2.289,1.301c1.109,0.508,2.631,1.083,3.65,2.143c0.707,0.733,1.242,1.682,1.242,2.986
	c0,2.758-1.914,4.854-5.351,4.854c-2.932,0-4.781-1.612-4.954-1.773l0.913-1.345c0.472,0.35,2.311,1.44,3.992,1.44
	c2.492,0,3.425-1.366,3.425-3.017c0-0.762-0.347-1.377-0.865-1.87c-0.77-0.747-1.941-1.242-3.062-1.755
	c-1.114-0.51-2.186-1.042-2.944-1.842C118.742,186.176,118.244,185.316,118.244,184.015"/>
<path fill="#FFFFFF" d="M194.338,67.904c0-2.08-0.707-3.76-2.23-4.654c-0.955-0.561-2.246-0.743-3.84-0.743l-11.6-0.005v23.422
	h12.624c2.907,0,4.621,0.656,4.771,3.266h0.279L194.338,67.904z"/>
<path fill="#FFFFFF" d="M195.957,67.904c0-2.08,0.705-3.76,2.232-4.654c0.955-0.561,2.246-0.743,3.84-0.743l11.68-0.005v23.422
	h-12.705c-2.908,0-4.621,0.656-4.77,3.266h-0.279L195.957,67.904z"/>
<path fill="#FFFFFF" d="M216.135,64.235v24.757h-17.934l-0.204,0.508c-0.315,0.771-0.873,1.485-2.831,1.485
	c-1.955,0-2.514-0.714-2.828-1.485l-0.207-0.508h-17.9V64.235h-1.619v0.755l-1.554-0.477c-0.179-0.611-0.737-1.062-1.407-1.062
	c-0.814,0-1.476,0.662-1.476,1.476s0.661,1.474,1.476,1.474c0.355,0,0.678-0.13,0.932-0.342l2.029,0.625v1.99l-1.527-0.273
	c-0.223-0.527-0.745-0.895-1.353-0.895c-0.813,0-1.476,0.659-1.476,1.476c0,0.813,0.662,1.474,1.476,1.474
	c0.417,0,0.797-0.181,1.065-0.461l1.814,0.326v2.029l-1.592-0.072c-0.258-0.428-0.725-0.72-1.262-0.72
	c-0.812,0-1.478,0.661-1.478,1.476c0,0.812,0.665,1.474,1.478,1.474c0.491,0,0.923-0.241,1.191-0.61l1.662,0.072v2.204l-1.627,0.059
	c-0.269-0.374-0.705-0.62-1.201-0.62c-0.812,0-1.477,0.662-1.477,1.476s0.665,1.474,1.477,1.474c0.533,0,0.998-0.285,1.256-0.71
	l1.572-0.056v2.032l-1.781,0.307c-0.27-0.286-0.648-0.47-1.072-0.47c-0.812,0-1.478,0.66-1.478,1.475
	c0,0.816,0.665,1.474,1.478,1.474c0.604,0,1.123-0.363,1.352-0.886l1.502-0.258v1.994l-1.947,0.596
	c-0.255-0.21-0.578-0.34-0.933-0.34c-0.813,0-1.476,0.658-1.476,1.474c0,0.813,0.662,1.474,1.476,1.474
	c0.67,0,1.226-0.448,1.407-1.06l1.473-0.45v1.931l-2.153,0.927c-0.23-0.152-0.507-0.243-0.808-0.243
	c-0.814,0-1.476,0.66-1.476,1.474c0,0.816,0.661,1.479,1.476,1.479c0.724,0,1.325-0.527,1.445-1.22l1.516-0.653v1.764h18.525
	c0.75,1.311,2.053,1.991,4.029,1.991s3.279-0.681,4.033-1.991h18.555V64.235H216.135z"/>
<path fill="#FFFFFF" d="M182.979,55.979c-3.742,0-6.779,0.584-6.779,1.3c0,0.72,3.037,1.303,6.779,1.303
	c3.743,0,6.78-0.583,6.78-1.303C189.759,56.562,186.722,55.979,182.979,55.979"/>
<path fill="#FFFFFF" d="M192.312,47.857l-3.912,2.751l-0.036,0.278l0.931,0.416c0.188,0.095,0.188,0.241,0.096,0.33l-2.461,2.075
	l-0.233-0.021l-1.741-2.568c-0.121-0.166-0.078-0.33,0.134-0.365l1.169-0.193v-0.294l-3.032-4.282h-0.496l-3.032,4.282v0.294
	l1.172,0.193c0.206,0.035,0.252,0.199,0.133,0.365l-1.744,2.568l-0.232,0.021l-2.295-2.075c-0.096-0.089-0.092-0.235,0.092-0.33
	l0.932-0.416l-0.035-0.278l-4.077-2.751l-0.331,0.13l2.395,7.312c1.213-0.545,4.004-0.931,7.273-0.944
	c3.268,0.014,6.056,0.399,7.273,0.944l2.392-7.312L192.312,47.857z"/>
<path fill="#FFFFFF" d="M195.139,105.02c-3.744,0-6.783,0.583-6.783,1.3c0,0.719,3.039,1.302,6.783,1.302
	c3.742,0,6.779-0.583,6.779-1.302C201.918,105.603,198.881,105.02,195.139,105.02"/>
<path fill="#FFFFFF" d="M204.473,96.896l-3.912,2.752l-0.033,0.277l0.93,0.42c0.182,0.09,0.182,0.239,0.09,0.328l-2.46,2.074
	l-0.233-0.02l-1.74-2.568c-0.119-0.164-0.076-0.33,0.133-0.367l1.168-0.19v-0.296l-3.029-4.282h-0.498l-3.029,4.282v0.296
	l1.168,0.19c0.213,0.037,0.256,0.203,0.134,0.367l-1.741,2.568l-0.232,0.02l-2.297-2.074c-0.096-0.089-0.093-0.238,0.092-0.328
	l0.93-0.42l-0.032-0.277l-4.079-2.752l-0.33,0.131l2.395,7.312c1.217-0.545,4.008-0.932,7.273-0.945
	c3.268,0.014,6.059,0.4,7.271,0.945l2.396-7.312L204.473,96.896z"/>
<path fill="#FFFFFF" d="M207.266,55.979c-3.742,0-6.775,0.584-6.775,1.3c0,0.72,3.033,1.303,6.775,1.303
	c3.746,0,6.781-0.583,6.781-1.303C214.047,56.562,211.012,55.979,207.266,55.979"/>
<path fill="#FFFFFF" d="M216.602,47.857l-3.912,2.751l-0.037,0.278l0.93,0.416c0.188,0.095,0.188,0.241,0.096,0.33l-2.461,2.075
	l-0.232-0.021l-1.738-2.568c-0.123-0.166-0.078-0.33,0.131-0.365l1.168-0.193v-0.294l-3.029-4.282h-0.496l-3.035,4.282v0.294
	l1.176,0.193c0.205,0.035,0.248,0.199,0.129,0.365l-1.74,2.568l-0.234,0.021l-2.297-2.103c-0.094-0.089-0.092-0.236,0.094-0.327
	l0.93-0.392l-0.035-0.278l-4.076-2.751l-0.331,0.13l2.394,7.312c1.213-0.545,4.006-0.931,7.273-0.944
	c3.27,0.014,6.059,0.399,7.273,0.944l2.393-7.312L216.602,47.857z"/>
<path fill="#192352" d="M179.662,66.219c0.637,0,1.164,0.125,1.508,0.461c0.242,0.23,0.445,0.615,0.445,1.059
	c0,1.285-0.975,1.836-2.17,1.836h-1.332v-0.199c0.377-0.031,0.418-0.068,0.418-0.626v-1.706c0-0.554-0.041-0.591-0.377-0.621v-0.203
	H179.662z M179.41,68.755c0,0.458,0.113,0.546,0.361,0.546c0.443,0,0.895-0.488,0.895-1.404c0-1.107-0.564-1.42-1.004-1.42
	c-0.119,0-0.184,0.018-0.223,0.037c-0.023,0.011-0.029,0.13-0.029,0.259V68.755z"/>
<path fill="#192352" d="M185.527,67.857c0,1.104-0.753,1.797-1.746,1.797c-1.041,0-1.717-0.762-1.717-1.712
	c0-0.835,0.557-1.802,1.793-1.802C184.799,66.141,185.527,66.835,185.527,67.857 M183.021,67.768c0,0.936,0.354,1.616,0.86,1.616
	c0.444,0,0.687-0.427,0.687-1.362c0-1.036-0.372-1.611-0.816-1.611C183.353,66.41,183.021,66.865,183.021,67.768"/>
<path fill="#192352" d="M190.087,66.219v0.203c-0.394,0.035-0.413,0.055-0.396,0.598l0.05,1.729
	c0.019,0.573,0.027,0.589,0.398,0.624v0.203h-1.617v-0.203c0.389-0.035,0.402-0.051,0.396-0.624l-0.014-1.817h-0.021l-0.996,2.586
	h-0.279l-0.943-2.404h-0.011l-0.038,1.146c-0.014,0.441-0.008,0.691,0.014,0.85c0.02,0.191,0.133,0.239,0.467,0.264v0.203h-1.275
	v-0.203c0.25-0.02,0.348-0.072,0.381-0.264c0.023-0.158,0.053-0.434,0.08-0.902l0.057-1.044c0.035-0.649-0.005-0.706-0.414-0.741
	v-0.203h1.215l0.906,2.043l0.786-2.043H190.087z"/>
<path fill="#192352" d="M191.763,68.749c0,0.56,0.044,0.595,0.398,0.626v0.199h-1.673v-0.199c0.355-0.031,0.398-0.066,0.398-0.626
	v-1.706c0-0.554-0.043-0.591-0.398-0.621v-0.203h1.673v0.203c-0.354,0.03-0.398,0.067-0.398,0.621V68.749z"/>
<path fill="#192352" d="M183.451,75.806h-0.445l-1.908-2.438h-0.014v0.951c0,0.543,0.021,0.826,0.04,0.988
	c0.03,0.18,0.168,0.246,0.507,0.264v0.2h-1.283v-0.2c0.229-0.012,0.361-0.084,0.386-0.264c0.019-0.162,0.041-0.445,0.041-0.988
	v-0.951c0-0.379-0.011-0.447-0.114-0.591c-0.076-0.108-0.203-0.144-0.391-0.161v-0.202h1.143l1.716,2.144h0.011v-0.691
	c0-0.541-0.019-0.828-0.037-0.986c-0.03-0.18-0.169-0.246-0.508-0.264v-0.202h1.312v0.202c-0.256,0.011-0.391,0.084-0.415,0.264
	c-0.019,0.158-0.04,0.445-0.04,0.986V75.806z"/>
<path fill="#192352" d="M185.539,75.806c-0.355-0.931-0.841-2.205-1.025-2.69c-0.171-0.441-0.273-0.469-0.521-0.5v-0.202h1.666
	v0.202l-0.174,0.02c-0.192,0.022-0.192,0.07-0.136,0.25c0.095,0.289,0.502,1.305,0.694,1.811c0.158-0.438,0.488-1.426,0.572-1.666
	c0.109-0.316,0.076-0.372-0.156-0.396l-0.156-0.018v-0.202h1.251v0.202c-0.296,0.037-0.366,0.063-0.569,0.533
	c-0.027,0.07-0.659,1.605-1.045,2.657H185.539z"/>
<path fill="#192352" d="M187.868,74.707c0.108,0.3,0.415,0.872,0.919,0.872c0.27,0,0.475-0.175,0.475-0.511
	c0-0.303-0.199-0.475-0.515-0.62l-0.079-0.035c-0.423-0.198-0.902-0.464-0.902-1.017c0-0.584,0.423-1.059,1.233-1.059
	c0.16,0,0.325,0.02,0.478,0.062c0.116,0.03,0.2,0.05,0.266,0.071c0.021,0.204,0.057,0.456,0.113,0.807l-0.228,0.036
	c-0.113-0.342-0.292-0.71-0.702-0.71c-0.264,0-0.449,0.204-0.449,0.451c0,0.259,0.202,0.408,0.533,0.559l0.111,0.053
	c0.477,0.217,0.887,0.477,0.887,1.082c0,0.637-0.512,1.102-1.315,1.102c-0.203,0-0.415-0.043-0.556-0.09
	c-0.154-0.053-0.264-0.092-0.322-0.123c-0.043-0.238-0.109-0.516-0.174-0.863L187.868,74.707z"/>
<path fill="#192352" d="M181.154,81.14c0,0.558,0.04,0.595,0.396,0.624v0.201h-1.671v-0.201c0.355-0.029,0.396-0.066,0.396-0.624
	v-1.706c0-0.555-0.041-0.591-0.396-0.622v-0.202h1.671v0.202c-0.355,0.031-0.396,0.067-0.396,0.622V81.14z"/>
<path fill="#192352" d="M183.198,81.207c0,0.27,0.011,0.396,0.103,0.442c0.085,0.042,0.201,0.048,0.361,0.048
	c0.163,0,0.389-0.016,0.494-0.152c0.084-0.098,0.173-0.236,0.255-0.508l0.222,0.036c-0.032,0.194-0.139,0.732-0.184,0.892h-2.561
	v-0.201c0.391-0.029,0.431-0.066,0.431-0.624v-1.706c0-0.555-0.04-0.591-0.388-0.623v-0.201h1.682v0.201
	c-0.374,0.032-0.415,0.068-0.415,0.623V81.207z"/>
<path fill="#192352" d="M186.078,81.207c0,0.27,0.009,0.396,0.104,0.442c0.084,0.042,0.201,0.048,0.36,0.048
	c0.166,0,0.391-0.016,0.496-0.152c0.082-0.098,0.171-0.236,0.255-0.508l0.223,0.036c-0.032,0.194-0.138,0.732-0.188,0.892h-2.559
	v-0.201c0.39-0.029,0.434-0.066,0.434-0.624v-1.706c0-0.555-0.044-0.591-0.391-0.623v-0.201h1.678v0.201
	c-0.368,0.032-0.412,0.068-0.412,0.623V81.207z"/>
<path fill="#192352" d="M188.547,82.001c-0.355-0.931-0.842-2.205-1.028-2.69c-0.171-0.441-0.271-0.469-0.521-0.5v-0.202h1.668
	v0.202l-0.18,0.019c-0.188,0.022-0.188,0.071-0.133,0.251c0.096,0.289,0.502,1.307,0.691,1.811c0.163-0.438,0.491-1.424,0.575-1.666
	c0.108-0.316,0.075-0.373-0.154-0.398l-0.155-0.016v-0.202h1.248v0.202c-0.293,0.036-0.366,0.061-0.57,0.534
	c-0.029,0.069-0.658,1.604-1.047,2.656H188.547z"/>
<path fill="#192352" d="M202.412,66.219v0.203c-0.391,0.035-0.412,0.055-0.398,0.598l0.051,1.729c0.016,0.573,0.025,0.589,0.4,0.624
	v0.203h-1.617v-0.203c0.387-0.035,0.404-0.051,0.398-0.624l-0.016-1.817h-0.021l-0.996,2.586h-0.279l-0.943-2.404h-0.012
	l-0.037,1.146c-0.014,0.441-0.009,0.691,0.01,0.85c0.02,0.191,0.133,0.239,0.471,0.264v0.203h-1.275v-0.203
	c0.246-0.02,0.348-0.072,0.379-0.264c0.025-0.158,0.055-0.434,0.079-0.902l0.06-1.044c0.035-0.649-0.006-0.706-0.414-0.741v-0.203
	h1.215l0.902,2.043l0.789-2.043H202.412z"/>
<path fill="#192352" d="M204.088,68.749c0,0.56,0.043,0.595,0.398,0.626v0.199h-1.672v-0.199c0.354-0.031,0.398-0.066,0.398-0.626
	v-1.706c0-0.554-0.045-0.591-0.398-0.621v-0.203h1.672v0.203c-0.355,0.03-0.398,0.067-0.398,0.621V68.749z"/>
<path fill="#192352" d="M207.932,69.611h-0.445l-1.912-2.438h-0.012v0.949c0,0.545,0.025,0.828,0.045,0.985
	c0.025,0.183,0.164,0.251,0.506,0.268v0.199h-1.285v-0.199c0.229-0.014,0.361-0.085,0.385-0.268c0.025-0.157,0.045-0.44,0.045-0.985
	v-0.949c0-0.381-0.012-0.447-0.115-0.592c-0.078-0.108-0.205-0.145-0.393-0.161v-0.203h1.141l1.721,2.144h0.01V67.67
	c0-0.541-0.021-0.827-0.041-0.986c-0.025-0.18-0.168-0.246-0.51-0.263v-0.203h1.32v0.203c-0.256,0.011-0.395,0.083-0.42,0.263
	c-0.018,0.159-0.039,0.445-0.039,0.986V69.611z"/>
<path fill="#192352" d="M210.09,69.376l0.154-0.023c0.191-0.024,0.201-0.077,0.133-0.263l-0.184-0.525h-0.85l-0.152,0.494
	c-0.07,0.223-0.07,0.275,0.168,0.301l0.152,0.017v0.199h-1.203v-0.199c0.262-0.036,0.338-0.059,0.512-0.492l1.033-2.669l0.355-0.071
	l0.35,0.975c0.223,0.612,0.445,1.225,0.641,1.749c0.164,0.45,0.26,0.475,0.512,0.509v0.199h-1.621V69.376z M209.434,68.253h0.66
	l-0.324-0.985h-0.018L209.434,68.253z"/>
<path fill="#192352" d="M202.371,74.944c0,0.558,0.041,0.595,0.475,0.624v0.201h-1.807v-0.201c0.414-0.029,0.453-0.066,0.453-0.624
	v-2.26h-0.09c-0.342,0-0.482,0.061-0.562,0.154c-0.062,0.075-0.125,0.212-0.193,0.501h-0.217c0.021-0.435,0.053-0.793,0.062-1.053
	h0.16c0.078,0.116,0.131,0.127,0.268,0.127h2.059c0.137,0,0.16-0.031,0.244-0.127h0.16c0.006,0.215,0.033,0.654,0.057,1.036
	l-0.227,0.017c-0.08-0.311-0.135-0.445-0.213-0.533c-0.088-0.093-0.258-0.122-0.504-0.122h-0.125V74.944z"/>
<path fill="#192352" d="M205.074,74.944c0,0.558,0.041,0.595,0.396,0.624v0.201h-1.67v-0.201c0.355-0.029,0.396-0.066,0.396-0.624
	v-1.706c0-0.554-0.041-0.59-0.396-0.622v-0.202h1.67v0.202c-0.355,0.032-0.396,0.068-0.396,0.622V74.944z"/>
<path fill="#192352" d="M209.367,74.051c0,1.106-0.756,1.799-1.742,1.799c-1.045,0-1.723-0.763-1.723-1.712
	c0-0.835,0.559-1.8,1.789-1.8C208.641,72.338,209.367,73.03,209.367,74.051 M206.863,73.963c0,0.936,0.35,1.616,0.855,1.616
	c0.447,0,0.689-0.429,0.689-1.364c0-1.035-0.375-1.611-0.816-1.611C207.193,72.604,206.863,73.061,206.863,73.963"/>
<path fill="#192352" d="M203.896,78.609v0.202c-0.395,0.036-0.412,0.056-0.396,0.599l0.049,1.729
	c0.016,0.572,0.027,0.59,0.398,0.625v0.201h-1.617v-0.201c0.389-0.035,0.402-0.053,0.398-0.625l-0.016-1.816h-0.021l-0.996,2.586
	h-0.275l-0.947-2.405h-0.014l-0.035,1.145c-0.014,0.443-0.008,0.691,0.012,0.853c0.021,0.191,0.133,0.239,0.469,0.264v0.201h-1.275
	v-0.201c0.248-0.021,0.348-0.072,0.381-0.264c0.023-0.161,0.053-0.434,0.078-0.902l0.061-1.044c0.035-0.649-0.006-0.706-0.416-0.742
	v-0.202h1.215l0.904,2.043l0.789-2.043H203.896z"/>
<path fill="#192352" d="M204.693,79.436c0-0.559-0.041-0.596-0.385-0.625v-0.201h2.445c0.006,0.088,0.029,0.464,0.061,0.851
	l-0.229,0.017c-0.055-0.252-0.109-0.397-0.193-0.48c-0.084-0.088-0.254-0.119-0.527-0.119h-0.086c-0.197,0-0.207,0-0.207,0.18v0.997
	h0.258c0.443,0,0.461-0.03,0.512-0.422h0.225v1.216h-0.225c-0.051-0.452-0.068-0.482-0.512-0.482h-0.258v0.842
	c0,0.266,0.01,0.396,0.105,0.443c0.08,0.043,0.201,0.045,0.359,0.045c0.207,0,0.436-0.031,0.549-0.152
	c0.084-0.096,0.174-0.283,0.252-0.533l0.229,0.035c-0.027,0.254-0.137,0.781-0.182,0.92h-2.625v-0.199
	c0.393-0.035,0.434-0.07,0.434-0.626V79.436z"/>
<path fill="#192352" d="M208.877,81.766l0.154-0.022c0.193-0.025,0.201-0.079,0.133-0.265l-0.184-0.524h-0.846l-0.154,0.495
	c-0.072,0.223-0.072,0.273,0.168,0.299l0.15,0.018v0.199h-1.203v-0.199c0.264-0.037,0.342-0.059,0.512-0.492l1.033-2.67l0.355-0.07
	l0.35,0.975c0.223,0.613,0.445,1.225,0.641,1.748c0.166,0.451,0.258,0.477,0.514,0.51v0.199h-1.623V81.766z M208.221,80.644h0.662
	l-0.326-0.985h-0.016L208.221,80.644z"/>
<path fill="#FFFFFF" d="M190.482,123.5c0,0.746-0.604,1.349-1.354,1.349c-0.742,0-1.344-0.603-1.344-1.349
	c0-0.745,0.602-1.352,1.344-1.352C189.878,122.148,190.482,122.755,190.482,123.5"/>
<path fill="#FFFFFF" d="M204.176,125.745c0,0.747-0.607,1.351-1.352,1.351s-1.35-0.604-1.35-1.351c0-0.743,0.605-1.35,1.35-1.35
	S204.176,125.002,204.176,125.745"/>
<path fill="#FFFFFF" d="M196.436,28.172c0,0.744-0.605,1.35-1.351,1.35c-0.747,0-1.349-0.605-1.349-1.35
	c0-0.748,0.602-1.35,1.349-1.35C195.83,26.822,196.436,27.424,196.436,28.172"/>
<path fill="#FFFFFF" d="M228.566,40.811c-0.033,0.744-0.662,1.322-1.406,1.291c-0.748-0.031-1.326-0.66-1.293-1.405
	c0.029-0.745,0.66-1.322,1.404-1.292C228.018,39.436,228.596,40.066,228.566,40.811"/>
<path fill="#FFFFFF" d="M160.853,98.766c0.519,0.747,0.781,1.545,0.778,2.371c0,0.944-0.316,1.71-2.006,2.881l-4.874,3.474
	l-0.897-1.292c0,0,4.994-3.557,5.073-3.612c0.862-0.596,1.231-1.03,1.231-1.714c0-0.433-0.156-0.902-0.469-1.352
	c-0.488-0.703-1.115-0.928-1.67-0.931c-0.5,0-1.037,0.353-2,1.021l-4.582,3.111l-0.883-1.27l4.363-2.955
	c1.213-0.853,2.182-1.436,3.079-1.436C159.311,97.065,160.264,97.918,160.853,98.766"/>
<polygon fill="#FFFFFF" points="145.273,89.247 154.547,85.994 155.062,87.4 149.756,93.885 156.462,91.229 156.961,92.598 
	147.792,96.119 147.279,94.714 152.611,88.225 145.771,90.615 "/>
<rect x="143.946" y="81.132" transform="matrix(-0.9892 0.1469 -0.1469 -0.9892 308.124 141.0884)" fill="#FFFFFF" width="9.815" height="1.572"/>
<polygon fill="#FFFFFF" points="143.598,70.156 143.638,68.528 153.322,72.463 153.257,74.08 143.307,77.049 143.318,75.415 
	151.385,73.154 "/>
<path fill="#FFFFFF" d="M152.459,48.197c-1.389,0.003-2.031,0.797-2.918,2.396l-1.152,2.066l8.648,4.689l0.748-1.349l-3.596-1.961
	l0.209-0.39c0.607-1.094,0.812-1.26,2.359-1.129l2.799,0.25l0.8-1.453l-3.228-0.275c-0.648-0.061-1.16-0.107-1.576,0.014
	c-0.137,0.04-0.301,0.123-0.463,0.238c0.038-0.176,0.104-0.345,0.105-0.525c0.003-0.275-0.037-0.551-0.121-0.8
	c-0.186-0.575-0.598-1.042-1.219-1.386C153.393,48.328,152.929,48.197,152.459,48.197 M150.711,51.171
	c0.574-1.047,0.986-1.442,1.594-1.44c0.225,0,0.51,0.059,0.797,0.213c0.367,0.207,0.648,0.545,0.754,0.908
	c0.041,0.142,0.057,0.284,0.057,0.426c-0.005,0.582-0.33,1.168-0.672,1.782l-0.197,0.363l-2.767-1.484L150.711,51.171z"/>
<rect x="166.016" y="32.844" transform="matrix(-0.796 0.6053 -0.6053 -0.796 322.4289 -33.1565)" fill="#FFFFFF" width="1.572" height="9.813"/>
<polygon fill="#FFFFFF" points="168.59,30.5 174.938,27.195 175.557,28.387 173.089,29.672 177.002,37.188 175.607,37.914 
	171.695,30.398 169.207,31.691 "/>
<polygon fill="#FFFFFF" points="184.428,24.209 186.082,23.748 184.75,30.312 185.829,34.043 184.332,34.473 183.277,30.773 
	178.617,25.911 180.231,25.441 183.586,28.936 "/>
<polygon fill="#FFFFFF" points="214.375,37.627 219.359,29.171 224.047,31.934 223.367,33.092 220.018,31.117 218.641,33.455 
	221.791,35.312 221.127,36.447 217.973,34.59 215.719,38.418 "/>
<polygon fill="#FFFFFF" points="239.596,59.491 243.168,55.215 243.725,56.909 241.064,59.952 245.016,60.842 245.541,62.435 
	240.135,61.128 236.295,65.73 235.746,64.064 238.646,60.686 234.309,59.699 233.783,58.089 "/>
<polygon fill="#FFFFFF" points="236.787,69.136 246.572,68.338 247.014,73.765 245.676,73.872 245.359,70 242.656,70.221 
	242.949,73.867 241.643,73.973 241.344,70.326 236.916,70.688 "/>
<path fill="#FFFFFF" d="M241.115,77.887c-1.135,0-2.176,0.306-3.002,0.906c-1.48,1.071-1.748,2.613-1.748,3.516
	c0,3.318,3.115,4.646,5.459,4.646c1.125,0.003,2.152-0.307,2.963-0.892c1.654-1.197,1.744-2.996,1.744-3.576
	C246.531,79.589,243.871,77.887,241.115,77.887 M241.889,85.365c-1.912,0-4.145-1.042-4.145-2.969c0-0.699,0.242-1.635,1.104-2.263
	c0.584-0.425,1.34-0.649,2.189-0.649c0.975,0,2.73,0.275,3.65,1.547c0.318,0.436,0.48,0.943,0.477,1.484
	c0,0.753-0.307,1.648-1.113,2.23C243.48,85.16,242.732,85.365,241.889,85.365"/>
<path fill="#FFFFFF" d="M235.416,45.216c-0.99,0-2.045,0.313-3.064,0.957c-1.885,1.197-2.574,2.91-2.574,4.163
	c0,0.809,0.225,1.603,0.686,2.332c1.047,1.652,2.617,2.055,3.678,2.05c1.014-0.003,2.084-0.339,3.092-0.98
	c1.215-0.769,2.562-2.199,2.562-4.136c0-0.804-0.227-1.596-0.691-2.329C238.244,45.918,236.898,45.216,235.416,45.216
	 M233.889,53.21c-0.879,0-1.676-0.37-2.223-1.236c-0.279-0.438-0.416-0.917-0.422-1.396c-0.002-1.11,0.701-2.249,1.988-3.065
	c0.852-0.541,1.688-0.809,2.438-0.803c0.945,0,1.715,0.417,2.229,1.225c0.305,0.48,0.443,0.989,0.443,1.496
	c0,1.084-0.686,2.148-1.932,2.934C235.541,52.919,234.662,53.21,233.889,53.21"/>
<path fill="#FFFFFF" d="M208.641,24.998c-2.047,0-3.826,1.379-4.547,3.824c-0.158,0.543-0.258,1.08-0.258,1.603
	c0,0.98,0.166,1.758,0.564,2.491c0.91,1.661,2.57,2.228,3.834,2.228c0.713,0,1.4-0.164,2.031-0.509
	c1.656-0.905,2.75-3.007,2.75-5.018c0-0.875-0.17-1.697-0.557-2.402C211.662,25.769,210.184,24.998,208.641,24.998 M208.135,33.752
	c-0.709,0-1.736-0.347-2.311-1.395c-0.277-0.508-0.402-1.124-0.402-1.76c0-1.758,1.172-4.225,3.314-4.225
	c1.199,0,2.705,0.895,2.705,3.113C211.441,30.9,210.445,33.752,208.135,33.752"/>
<polygon fill="#FFFFFF" points="154.277,60.594 155.594,60.967 154.107,66.355 144.611,63.754 146.233,58.301 147.523,58.664 
	146.328,62.594 148.947,63.312 149.959,59.744 151.223,60.103 150.217,63.659 153.178,64.473 "/>
<path fill="#FFFFFF" d="M156.766,40.088c1.364-1.527,2.758-1.424,2.758-1.424l0.238,1.296c0,0-1.073,0.032-1.914,0.978
	c-0.366,0.411-0.553,0.838-0.553,1.225c0,0.32,0.125,0.597,0.374,0.818c0.681,0.607,1.841-0.066,2.567-0.357
	c0.559-0.232,1.354-0.556,2.151-0.556c0.591,0,1.204,0.169,1.765,0.67c0.654,0.583,0.982,1.315,0.982,2.085
	c0,0.832-0.326,1.574-0.979,2.305c-1.251,1.402-2.936,1.556-2.936,1.556l-0.333-1.313c0.993-0.23,1.744-0.611,2.196-1.121
	c0.361-0.4,0.537-0.851,0.537-1.245c0-0.369-0.156-0.716-0.458-0.985c-0.247-0.221-0.545-0.298-0.87-0.292
	c-0.629,0-1.387,0.36-2.007,0.62c-1.196,0.493-2.452,0.891-3.577-0.117c-0.572-0.512-0.879-1.155-0.879-1.87
	C155.83,41.604,156.129,40.801,156.766,40.088"/>
<path fill="#FFFFFF" d="M234.182,90.587l3.709,1.68l-0.184,0.417c-0.504,1.141-0.699,1.328-2.246,1.336h-2.809l-0.67,1.516
	l3.238-0.01c0.656,0,1.166,0,1.564-0.154c0.133-0.049,0.279-0.13,0.414-0.24c-0.008,0.082-0.035,0.164-0.037,0.249
	c-0.004,0.36,0.064,0.718,0.197,1.03c0.445,1.036,1.658,1.545,2.539,1.542c1.562,0,2.158-0.937,2.92-2.655
	c0.027-0.063,0.91-2.104,0.91-2.104l-8.926-4.018L234.182,90.587z M239.977,96.408c-0.445,0-1.193-0.253-1.479-0.986
	c-0.07-0.186-0.102-0.375-0.1-0.564c0.006-0.538,0.26-1.096,0.523-1.682l0.166-0.377l2.832,1.269l-0.316,0.758
	C241.076,96.023,240.73,96.408,239.977,96.408"/>
<path fill="#FFFFFF" d="M229.014,99.872c-1.018,1.274-1.791,2.414-1.791,3.885c0,1.25,0.566,2.673,2.002,3.815
	c0.953,0.763,2.029,1.173,3.137,1.173c1.365,0,2.463-0.408,4.16-2.541l1.551-1.95l-7.668-6.123L229.014,99.872z M232.512,107.262
	c-0.781,0-1.514-0.299-2.275-0.908c-0.771-0.615-1.592-1.579-1.592-2.804c0-0.854,0.463-1.667,1.176-2.558l0.648-0.818l5.605,4.479
	l-0.428,0.535C234.605,106.49,233.896,107.262,232.512,107.262"/>
<path fill="#FFFFFF" d="M251.381,75.059c0-30.957-25.225-56.139-56.229-56.139c-31.002,0-56.225,25.182-56.225,56.139
	c0,18.569,9.168,35.878,24.533,46.367c1.512,5.626,6.655,9.789,12.775,9.789c1.654,0,3.258-0.314,4.784-0.903
	c2.056,0.678,4.183,1.242,6.302,1.677c-0.596,1.706-1.469,3.322-2.299,4.722c0,0,0.02-0.005,0.049-0.011
	c-0.019,0.011-0.035,0.019-0.049,0.027l1.169,1.172c0.302-0.163,0.638-0.264,1.003-0.264c1.155,0,2.097,0.941,2.097,2.101
	c0,1.155-0.941,2.099-2.097,2.099c-1.012,0-1.9-0.647-2.361-1.342c0,0-0.274,0.946-0.274,2.19
	c-0.008,4.033,4.394,8.641,10.497,10.579c6.104-1.896,10.504-6.535,10.502-10.573c0-1.389-0.277-2.196-0.277-2.196
	c-0.469,0.563-1.227,1.342-2.373,1.342c-1.158,0-2.098-0.943-2.098-2.099c0-1.159,0.939-2.101,2.098-2.101
	c0.404,0,0.777,0.119,1.102,0.321l1.137-1.138c0.027,0.009,0.043,0.011,0.043,0.011c-0.643-1.536-1.113-2.948-1.432-4.308
	c10.109-1.359,18.641-5.639,25.424-12.77l-0.006-0.006C243.289,109.023,251.381,92.756,251.381,75.059 M176.236,129.635
	c-6.383,0-11.576-5.207-11.576-11.607c0-2.006,0.512-3.894,1.408-5.544c0.594,0.543,1.23,1.103,1.895,1.67
	c-0.563,1.191-0.887,2.513-0.887,3.913c0,3.481,1.755,6.357,5.08,8.318c1.906,1.125,4.067,2.142,6.355,3.028
	C177.767,129.56,177.01,129.635,176.236,129.635 M195.152,112.745c-2.408,0-4.784-0.232-7.107-0.678
	c-2.242-4.398-6.842-7.231-11.809-7.231c-1.219,0-2.396,0.181-3.516,0.488c-9.549-7.094-15.244-18.374-15.244-30.266
	c0-20.779,16.9-37.686,37.676-37.686c20.773,0,37.674,16.906,37.674,37.686C232.826,95.836,215.926,112.745,195.152,112.745
	 M203.535,113.414c-1.131,1.613-1.801,3.854-2.002,6.123c-3.566-0.919-6.805-2.154-9.624-3.439c0.534-1.039,2.074-1.775,3.243-1.775
	C198.029,114.322,200.832,114.002,203.535,113.414 M191.592,114.155c-0.48,0.358-0.865,0.784-1.139,1.253
	c-1.422-0.688-3.211-1.581-4.38-2.235C187.73,113.539,189.891,114.002,191.592,114.155 M176.236,106.416
	c3.881,0,7.508,1.989,9.639,5.177c-1.866-0.472-3.693-1.089-5.48-1.85l-0.006,0.011l-0.057-0.033
	c-1.25-0.589-2.587-0.886-3.975-0.886c-3.09,0-5.824,1.513-7.516,3.832c-0.711-0.395-1.421-0.809-2.117-1.241
	C168.814,108.402,172.297,106.416,176.236,106.416 M202.908,136.016c-2.074,0-3.775,1.466-3.775,3.72
	c0,2.202,1.725,3.716,3.775,3.716c0.309,0,0.607-0.053,0.895-0.125c-0.428,3.118-4.062,6.608-8.746,8.173
	c-4.645-1.554-8.275-5.071-8.756-8.173c0.287,0.075,0.583,0.125,0.895,0.125c2.235,0,3.772-1.562,3.772-3.716
	c0-2.056-1.61-3.666-3.69-3.711c0.631-1.161,1.239-2.394,1.689-3.719c2.576,0.449,5.117,0.694,7.479,0.694
	c1.936,0,3.815-0.105,5.651-0.291c0.244,1.062,0.604,2.177,1.031,3.326C203.055,136.029,202.982,136.016,202.908,136.016
	 M196.446,131.424c-7.54,0-16.95-2.564-23.415-6.38c-1.957-1.155-4.295-3.305-4.295-6.978c0-0.991,0.195-1.939,0.539-2.809
	c2.414,1.993,4.906,3.866,6.474,4.722c0.358,0.196,0.566,0.294,0.987,0.294c1.004,0,1.816-0.819,1.816-1.828
	c0-0.769-0.414-1.394-1.105-1.696c-1.34-0.582-4.139-1.74-7.152-3.302c1.395-1.841,3.591-3.035,6.062-3.035
	c1.13,0,2.217,0.241,3.231,0.723l2.069,1.205c6.57,4.013,23.471,14.304,43.881,8.646
	C217.791,127.977,208.25,131.424,196.446,131.424 M228.1,118.543c-9.135,3.232-17.66,3.011-24.934,1.386
	c0.238-3.248,1.584-6.72,3.637-7.366c16.02-4.969,27.688-19.902,27.688-37.504c0-21.652-17.648-39.267-39.338-39.267
	c-21.692,0-39.338,17.614-39.338,39.267c0,12.043,5.624,23.484,15.094,30.901c-2.245,0.988-4.166,2.589-5.554,4.576
	c-0.716-0.487-1.407-0.993-2.05-1.521l-0.359,0.357c0.43,0.52,1.097,1.203,1.894,1.967c-1.165,1.96-1.841,4.246-1.841,6.688
	c0,0.379,0.024,0.752,0.057,1.124c-14.094-10.27-22.468-26.598-22.468-44.093c0-30.086,24.479-54.562,54.565-54.562
	c30.088,0,54.562,24.476,54.562,54.562C249.715,92.289,241.838,108.122,228.1,118.543"/>
</svg>
